<svg xmlns="http://www.w3.org/2000/svg" viewBox="0 0 900 1350" role="img" aria-labelledby="title desc">
  <title id="title">A Court of Thorns and Roses Kindle Edition</title>
  <desc id="desc">Decorative placeholder cover for A Court of Thorns and Roses Kindle Edition.</desc>
  <defs>
    <linearGradient id="bg" x1="0%" y1="0%" x2="100%" y2="100%">
      <stop offset="0%" stop-color="#102033"/>
      <stop offset="100%" stop-color="#546e9e"/>
    </linearGradient>
  </defs>
  <rect width="900" height="1350" rx="44" fill="url(#bg)"/>
  <path d="M130 1110c143-42 250-111 322-205 82-108 137-247 166-417 58 108 98 213 120 314 24 112 36 214 36 308H130Z" fill="#e8eefb" opacity="0.18"/>
  <path d="M178 950c52-27 99-72 142-134 31-46 65-123 102-232 37 78 70 140 100 184 34 49 82 105 144 169-130 16-293 20-488 13Z" fill="#f3d0d0" opacity="0.18"/>
  <text x="88" y="158" fill="#d9e5fb" font-size="44" font-family="Arial, Helvetica, sans-serif" letter-spacing="8">KINDLE EDITION</text>
  <text x="88" y="390" fill="#f2f6fd" font-size="86" font-weight="700" font-family="Georgia, 'Times New Roman', serif">A COURT OF</text>
  <text x="88" y="512" fill="#f2f6fd" font-size="128" font-weight="700" font-family="Georgia, 'Times New Roman', serif">THORNS</text>
  <text x="88" y="648" fill="#f2f6fd" font-size="76" font-weight="700" font-family="Georgia, 'Times New Roman', serif">AND</text>
  <text x="88" y="790" fill="#f2f6fd" font-size="128" font-weight="700" font-family="Georgia, 'Times New Roman', serif">ROSES</text>
  <text x="94" y="900" fill="#d6dff7" font-size="46" font-family="Georgia, 'Times New Roman', serif" letter-spacing="6">SARAH J. MAAS</text>
  <text x="92" y="1176" fill="#d3ddf7" font-size="36" font-family="Arial, Helvetica, sans-serif" letter-spacing="5">BOOKTOK ROMANTASY CLASSIC</text>
</svg>
